<?xml version="1.0" encoding="UTF-8"?>
<svg width="1200pt" height="1200pt" version="1.1" viewBox="0 0 1200 1200" xmlns="http://www.w3.org/2000/svg">
 <path d="m1057.5 346.88c-15-22.5-43.125-26.25-67.5-30-7.5-1.875-15-1.875-18.75-3.75s-7.5-1.875-11.25-3.75c-15-5.625-31.875-11.25-63.75 0-26.25 9.375-45 26.25-78.75 58.125-11.25 11.25-24.375 22.5-41.25 37.5-15 13.125-30 18.75-45 16.875-37.5-1.875-75-39.375-93.75-61.875-24.375-28.125-60-35.625-99.375-45-15-3.75-31.875-7.5-48.75-13.125-48.75-16.875-101.25-24.375-150 16.875-33.75 30-95.625 45-95.625 45-5.625 1.875-9.375 3.75-11.25 7.5-3.75 7.5-11.25 16.875-18.75 26.25-24.375 31.875-52.5 69.375-43.125 101.25 3.75 13.125 5.625 18.75 7.5 22.5s1.875 3.75 5.625 26.25c5.625 28.125 7.5 63.75-11.25 82.5-20.625 20.625-35.625 33.75-35.625 33.75-5.625 3.75-7.5 11.25-5.625 18.75l50.625 208.12c1.875 7.5 9.375 15 18.75 15h125.62c5.625 0 11.25-1.875 15-7.5s5.625-11.25 3.75-16.875l-39.375-155.62 67.5-105c1.875-3.75 3.75-5.625 3.75-9.375v-11.25c24.375 7.5 52.5 13.125 88.125 15l-46.875 101.25s0 1.875-1.875 1.875l-50.625 166.88c-1.875 5.625 0 11.25 3.75 16.875s9.375 7.5 15 7.5h60c7.5 0 15-5.625 18.75-13.125l46.875-155.62 48.75-116.25 3.75 103.12v3.75l46.875 163.12c1.875 7.5 9.375 13.125 18.75 13.125h65.625c5.625 0 11.25-3.75 15-7.5s3.75-11.25 1.875-16.875l-54.375-161.25 5.625-165c63.75 7.5 120-11.25 159.38-30 35.625-16.875 99.375-69.375 125.62-90 15-13.125 43.125-9.375 63.75-7.5 9.375 1.875 16.875 1.875 22.5 1.875 13.125 0 24.375-7.5 30-18.75 9.375-18.75 7.5-45-5.625-65.625zm-721.88 260.62-67.5 108.75c-1.875 3.75-3.75 9.375-1.875 15l35.625 140.62h-22.5l-35.625-142.5 67.5-105c1.875-3.75 3.75-5.625 3.75-9.375v-41.25c7.5 3.75 15 9.375 24.375 13.125v20.625zm331.88 262.5h-30l-43.125-148.12-3.75-133.12 31.875-20.625-3.75 155.62c0 1.875 0 3.75 1.875 7.5zm361.88-476.25c-3.75 0-9.375 0-15-1.875-26.25-3.75-63.75-7.5-91.875 15-39.375 33.75-91.875 73.125-118.12 86.25-37.5 18.75-97.5 37.5-157.5 22.5h-1.875-1.875-1.875c-1.875 0-3.75 0-5.625 1.875h-1.875s-1.875 0-1.875 1.875l-95.625 61.875c-3.75 1.875-5.625 5.625-7.5 9.375l-56.25 136.88-45 144.38h-20.625l43.125-140.62 58.125-125.62v-3.75-3.75-30l22.5-71.25c3.75-9.375-1.875-20.625-11.25-24.375s-20.625 1.875-24.375 11.25l-24.375 73.125v5.625 13.125c-103.12-3.75-148.12-41.25-159.38-54.375v-69.375c0-11.25-7.5-18.75-18.75-18.75s-18.75 7.5-18.75 18.75v153.75l-67.5 110.62c-1.875 3.75-3.75 9.375-1.875 15l35.625 140.62h-24.375l-45-183.75c7.5-5.625 16.875-15 30-28.125 24.375-24.375 31.875-61.875 20.625-116.25-3.75-24.375-5.625-26.25-7.5-33.75-1.875-1.875-1.875-7.5-5.625-18.75-3.75-15 20.625-46.875 35.625-67.5 5.625-7.5 11.25-15 16.875-22.5 18.75-5.625 71.25-22.5 105-50.625 28.125-24.375 58.125-28.125 114.38-9.375 16.875 5.625 35.625 9.375 50.625 13.125 33.75 7.5 61.875 13.125 78.75 33.75 28.125 31.875 69.375 71.25 118.12 75 26.25 1.875 50.625-7.5 73.125-26.25 16.875-15 30-28.125 41.25-37.5 31.875-30 46.875-43.125 67.5-50.625 18.75-7.5 24.375-3.75 37.5 0 3.75 1.875 7.5 3.75 13.125 3.75 7.5 1.875 15 3.75 24.375 3.75 15 1.875 35.625 3.75 41.25 13.125s5.625 20.625 3.75 24.375z" fill="#6cac93"/>
</svg>
